<?xml version="1.0" encoding="utf-8"?>
<!-- Generator: Adobe Illustrator 21.1.0, SVG Export Plug-In . SVG Version: 6.00 Build 0)  -->
<svg version="1.1" id="Capa_1" xmlns="http://www.w3.org/2000/svg" xmlns:xlink="http://www.w3.org/1999/xlink" x="0px" y="0px"
	 viewBox="0 0 551.1 551.1" style="enable-background:new 0 0 551.1 551.1;" xml:space="preserve">
<style type="text/css">
	.st0{fill:#FFFFFF;}
</style>
<g>
	<path class="st0" d="M465.2,453.5c14.7,67.7-58.8,82.4-91.1,73.6s-98.4-10.3-98.4-10.3s-66.2,1.5-98.6,10.3
		c-32.4,8.9-105.9-5.9-91.2-73.6s79.4-64.8,97.2-156c17.7-91.2,92.7-85.4,92.7-85.4s74.8-5.9,92.5,85.4
		C385.9,388.7,450.5,385.8,465.2,453.5z M343.6,206.1c39.8,11.5,83.8-20,98.3-70.3c14.5-50.2-6-100.3-45.8-111.8
		c-39.8-11.5-83.8,20-98.3,70.3C283.2,144.6,303.7,194.6,343.6,206.1z M508.7,187.9c-38.4-15.7-85.5,10.9-105.3,59.4
		c-19.8,48.5-4.7,100.4,33.7,116c38.4,15.6,85.5-10.9,105.3-59.4S547.1,203.5,508.7,187.9z M207.4,206.1
		c39.8-11.5,60.3-61.6,45.8-111.8s-58.6-81.7-98.3-70.2C115.1,35.6,94.6,85.7,109.1,136C123.6,186.2,167.6,217.7,207.4,206.1z
		 M114,363.2c38.4-15.7,53.4-67.6,33.7-116s-66.9-75-105.3-59.4C4,203.5-11.1,255.5,8.7,303.9C28.5,352.4,75.6,378.9,114,363.2z"/>
</g>
</svg>
