<svg xmlns="http://www.w3.org/2000/svg" viewBox="0 0 551.1 551.1"><path d="M465.2 453.5c14.7 67.7-58.8 82.4-91.1 73.6s-98.4-10.3-98.4-10.3-66.2 1.5-98.6 10.3c-32.4 8.9-105.9-5.9-91.2-73.6s79.4-64.8 97.2-156c17.7-91.2 92.7-85.4 92.7-85.4s74.8-5.9 92.5 85.4c17.6 91.2 82.2 88.3 96.9 156zM343.6 206.1c39.8 11.5 83.8-20 98.3-70.3 14.5-50.2-6-100.3-45.8-111.8s-83.8 20-98.3 70.3c-14.6 50.3 5.9 100.3 45.8 111.8zm165.1-18.2c-38.4-15.7-85.5 10.9-105.3 59.4-19.8 48.5-4.7 100.4 33.7 116 38.4 15.6 85.5-10.9 105.3-59.4s4.7-100.4-33.7-116zm-301.3 18.2c39.8-11.5 60.3-61.6 45.8-111.8s-58.6-81.7-98.3-70.2C115.1 35.6 94.6 85.7 109.1 136c14.5 50.2 58.5 81.7 98.3 70.1zM114 363.2c38.4-15.7 53.4-67.6 33.7-116s-66.9-75-105.3-59.4C4 203.5-11.1 255.5 8.7 303.9c19.8 48.5 66.9 75 105.3 59.3z" fill="#fff"/></svg>